<?xml version="1.0" encoding="UTF-8" standalone="no"?>
<!-- Created with Inkscape (http://www.inkscape.org/) -->

<svg
   width="40mm"
   height="40mm"
   viewBox="0 0 40 40"
   version="1.1"
   id="svg1"
   xmlns="http://www.w3.org/2000/svg"
   xmlns:svg="http://www.w3.org/2000/svg">
  <defs
     id="defs1" />
  <g
     id="layer1">
    <g
       id="g2"
       transform="matrix(1.3030015,0,0,1.3030015,-179.53543,2.3234492)">
      <path
         id="path122"
         style="fill:#5fa8d1;fill-opacity:1;fill-rule:evenodd;stroke:none;stroke-width:0.371871"
         d="m 143.55929,1.8520413 -5.45398,23.4280767 h 18.15494 l -3.68675,-8.940449 7.36795,-9.0784639 h 3.0292 l -5.58367,6.6235389 4.7881,11.395374 h 0.53619 l 5.45398,-23.4280767 z m 1.62485,5.4095604 1.58281,1.9429206 1.19891,-1.9429206 0.7222,1.9429206 1.39641,-1.9429206 0.52351,1.9429206 2.25821,-1.9429206 -1.18185,3.8870313 h -3.33339 -3.33417 z m 19.28286,0.00357 c 0.58109,0 1.03155,0.4687154 1.03155,1.0319411 v 0.00595 c 0,0.5632457 -0.4565,1.0374934 -1.03155,1.0374934 -0.58111,0 -1.03154,-0.4681898 -1.03154,-1.0315445 v -0.00595 c 0,-0.5632917 0.45629,-1.03789 1.03154,-1.03789 z m 0,0.1126331 c -0.51598,0 -0.91296,0.4212362 -0.91296,0.9252569 v 0.00555 c 0,0.5040847 0.39111,0.919308 0.91296,0.919308 0.51578,0 0.91296,-0.4208846 0.91296,-0.9248603 v -0.00595 c 0,-0.5039557 -0.39132,-0.919308 -0.91296,-0.919308 z m -0.48028,0.3561426 h 0.53382 c 0.30841,0 0.49813,0.1301354 0.49813,0.3791451 0,0.171834 -0.083,0.2786516 -0.21932,0.3378993 l 0.25461,0.3735928 h -0.41484 L 164.43131,8.51643 h -0.0769 v 0.308154 h -0.36765 z m 0.36765,0.3022056 v 0.2133683 h 0.15427 c 0.0889,0 0.14199,-0.035527 0.14199,-0.1066841 0,-0.07116 -0.0472,-0.1066842 -0.13604,-0.1066842 z m -19.40938,3.528113 h 6.66717 l -0.0869,0.501296 h -6.66756 z m -0.37161,1.572104 h 6.69969 l -1.07081,12.142956 h -8.56963 z" />
    </g>
  </g>
</svg>
