<?xml version="1.0" encoding="UTF-8" standalone="no"?>
<!-- Created with Inkscape (http://www.inkscape.org/) -->

<svg
   width="40mm"
   height="40mm"
   viewBox="0 0 40 40"
   version="1.1"
   id="svg1"
   xmlns="http://www.w3.org/2000/svg"
   xmlns:svg="http://www.w3.org/2000/svg">
  <defs
     id="defs1" />
  <g
     id="layer1">
    <g
       id="g2"
       transform="matrix(1.3030015,0,0,1.3030015,-179.53543,2.3234492)">
      <path
         id="path122"
         d="m 143.55919,1.8520788 h 24.60611 l -5.45405,23.4278922 h -24.6061 z"
         style="fill:#5fa8d1;fill-opacity:1;fill-rule:evenodd;stroke:none;stroke-width:0.371871" />
      <path
         id="path123"
         d="m 162.97078,7.2610928 -5.5838,6.6234752 4.78792,11.395403 h -5.91447 l -3.68681,-8.940458 7.36771,-9.0784202 z"
         style="fill:#ffffff;fill-opacity:1;fill-rule:nonzero;stroke:none;stroke-width:0.371871" />
      <path
         id="path124"
         d="m 150.20223,25.279255 h -8.56949 l 2.94057,-12.143064 h 6.69971 z"
         style="fill:#ffffff;fill-opacity:1;fill-rule:nonzero;stroke:none;stroke-width:0.373064" />
      <path
         id="path125"
         d="m 150.60803,9.2046776 -0.52371,-1.9431388 -1.39619,1.9431388 -0.72218,-1.9431388 -1.19896,1.9431388 -1.58287,-1.9431388 -0.1673,3.8871702 h 3.33432 3.33304 l 1.18189,-3.8871702 z"
         style="fill:#ffffff;fill-opacity:1;fill-rule:nonzero;stroke:none;stroke-width:0.371871" />
      <path
         id="path126"
         d="m 151.52543,12.065707 h -6.66755 l 0.087,-0.501468 h 6.66743 z"
         style="fill:#ffffff;fill-opacity:1;fill-rule:nonzero;stroke:none;stroke-width:0.371871" />
      <path
         id="path69-1"
         d="m 163.43539,8.3088602 v -0.0059 c 0,-0.5632917 0.45646,-1.0376214 1.03171,-1.0376214 0.58109,0 1.03158,0.4684187 1.03158,1.0316444 v 0.006 c 0,0.5632457 -0.45653,1.0376194 -1.03158,1.0376194 -0.58111,0 -1.03171,-0.4683967 -1.03171,-1.0317514 z m 1.94474,-0.0059 v 0 -0.006 c 0,-0.5039557 -0.39139,-0.9190807 -0.91303,-0.9190807 -0.51598,0 -0.91318,0.421038 -0.91318,0.9250587 v 0.0058 c 0,0.5040847 0.39133,0.9190804 0.91318,0.9190804 0.51578,0 0.91303,-0.4209727 0.91303,-0.9249484 z m -1.39334,-0.5692027 v 0 h 0.5336 c 0.30841,0 0.4981,0.130493 0.4981,0.3795027 0,0.171834 -0.083,0.27868 -0.21931,0.3379277 l 0.25485,0.373483 h -0.41499 l -0.20756,-0.30828 h -0.0771 v 0.30828 h -0.36761 z m 0.52182,0.5158007 v 0 c 0.0889,0 0.14221,-0.03556 0.14221,-0.106717 0,-0.07116 -0.0475,-0.106759 -0.13635,-0.106759 h -0.16007 v 0.213476 z"
         style="fill:#ffffff;fill-opacity:1;fill-rule:nonzero;stroke:none;stroke-width:0.217344" />
    </g>
  </g>
</svg>
